<?xml version="1.0" encoding="utf-8"?>
<!-- Generator: Adobe Illustrator 25.2.0, SVG Export Plug-In . SVG Version: 6.00 Build 0)  -->
<svg version="1.1" id="Layer_1" xmlns="http://www.w3.org/2000/svg" xmlns:xlink="http://www.w3.org/1999/xlink" x="0px" y="0px"
	 viewBox="0 0 200 164" style="enable-background:new 0 0 200 164;" xml:space="preserve">
<style type="text/css">
	.st0{fill-rule:evenodd;clip-rule:evenodd;fill:#00C58A;}
	.st1{fill:none;stroke:#00C58A;stroke-width:6;stroke-miterlimit:10;}
</style>
<path class="st0" d="M23.2,65.2h49.7c12.8,0,23,10.8,23,23.6v35.7c-0.1,12.6-10.4,22.9-23,23H36.6L5.3,164l4.5-21
	c-5.7-4.5-9.6-10.9-9.6-18.5V88.8C0.2,76,10.4,65.2,23.2,65.2z"/>
<path class="st1" d="M47,55.7V36.5C47,18.1,61.9,3.1,80.3,3.1c0,0,0,0,0,0h83.4c18.4,0,33.3,15,33.3,33.4v60.9
	c0,18.5-14.9,33.4-33.3,33.4H105"/>
<path class="st1" d="M119.9,35.1c9.6-0.5,17.9,1.9,17.9,14.4c0,21-27.4,18.7-27.4,18.7v3.2l29.2,32.2"/>
<line class="st1" x1="155.9" y1="35.1" x2="105.4" y2="35.1"/>
<line class="st1" x1="105.3" y1="49.4" x2="155.7" y2="49.4"/>
</svg>
