<?xml version="1.0" encoding="utf-8"?>
<!-- Generator: Adobe Illustrator 25.2.0, SVG Export Plug-In . SVG Version: 6.00 Build 0)  -->
<svg version="1.1" id="Layer_1" xmlns="http://www.w3.org/2000/svg" xmlns:xlink="http://www.w3.org/1999/xlink" x="0px" y="0px"
	 viewBox="0 0 40 40" style="enable-background:new 0 0 40 40;" xml:space="preserve">
<style type="text/css">
	.st0{display:none;}
	.st1{display:inline;}
	.st2{fill:none;stroke:#FFFFFF;stroke-width:2;stroke-linejoin:round;stroke-miterlimit:10;}
</style>
<g id="Layer_1_1_" class="st0">
	<path class="st1" d="M32.5-14.6c-3.7-2-8.3-0.7-10.3,2.9l0,0l-30.1,54c0,0.1-0.1,0.2-0.1,0.3v0.1v0.1l1.1,11.9
		c0,0.3,0.2,0.5,0.4,0.6c0.1,0.1,0.3,0.1,0.4,0.1s0.2,0,0.3-0.1L4.9,50l0,0l0,0C5,50,5.1,49.9,5.2,49.7L33.3-0.7l0,0l2-3.6
		C37.5-8,36.2-12.6,32.5-14.6z M31.6-0.8l-27.4,49l-4.5-2.5L27-3.3L31.6-0.8z M-1.6,45l-4.6-2.5l27.4-49L25.7-4L-1.6,45z M-6.3,44.1
		l9.2,5.1l-8.4,4.1L-6.3,44.1z M34.1-5.1l-1.6,2.9l-5.3-2.9l0,0L22-8l1.6-2.9c1.6-2.9,5.3-4,8.2-2.4S35.7-8,34.1-5.1z"/>
	<path class="st1" d="M1.3,10.8v-14c0-0.4-0.4-0.8-0.8-0.8h-14c-0.4,0-0.8,0.4-0.8,0.8v14c0,0.4,0.4,0.8,0.8,0.8h14
		C1,11.4,1.3,11.1,1.3,10.8z M-0.3,9.9h-12.4V-2.5h12.4V9.9z"/>
	<path class="st1" d="M27.4,35.2c-4.3,0-7.8,3.5-7.8,7.8s3.5,7.8,7.8,7.8s7.8-3.5,7.8-7.8l0,0C35.1,38.6,31.7,35.2,27.4,35.2z
		 M27.4,49.2c-3.4,0-6.2-2.8-6.2-6.2s2.8-6.2,6.2-6.2s6.2,2.7,6.2,6.1C33.6,46.3,30.9,49.1,27.4,49.2C27.4,49.1,27.4,49.1,27.4,49.2
		L27.4,49.2z"/>
	<path class="st1" d="M54.3,11.9c-0.1-0.2-0.4-0.4-0.7-0.4H37.9c-0.4,0-0.8,0.3-0.8,0.8c0,0.2,0,0.3,0.1,0.4l7.9,12.9
		c0.2,0.4,0.7,0.5,1.1,0.3c0.1-0.1,0.2-0.2,0.3-0.3l7.9-12.8C54.5,12.5,54.5,12.2,54.3,11.9z M45.8,23.8l-6.5-10.5h13L45.8,23.8z"/>
</g>
<g id="Layer_2_1_">
	<path class="st2" d="M5,31.9L20,5c1.8-4,5-4.3,6.4-3.5c2.6,1.3,2.6,4.2,0.6,7.5L12,35.9l-6.3,3L5,31.9z"/>
	<line class="st2" x1="5" y1="31.9" x2="12" y2="35.9"/>
	<line class="st2" x1="20" y1="5" x2="27" y2="8.9"/>
	<line class="st2" x1="8.5" y1="33.9" x2="23.6" y2="7.1"/>
	<circle class="st2" cx="23.9" cy="32.2" r="3.6"/>
	<polygon class="st2" points="37.9,15.7 29.6,15.7 33.7,22.9 	"/>
	<rect x="2.1" y="7.5" class="st2" width="7.5" height="7.5"/>
</g>
</svg>
