<?xml version="1.0" encoding="utf-8"?>
<!-- Generator: Adobe Illustrator 25.2.0, SVG Export Plug-In . SVG Version: 6.00 Build 0)  -->
<svg version="1.1" id="Layer_1" xmlns="http://www.w3.org/2000/svg" xmlns:xlink="http://www.w3.org/1999/xlink" x="0px" y="0px"
	 viewBox="0 0 40 40" style="enable-background:new 0 0 40 40;" xml:space="preserve">
<style type="text/css">
	.st0{fill:none;stroke:#FFFFFF;stroke-width:2;stroke-linejoin:round;stroke-miterlimit:10;}
	.st1{fill:none;stroke:#FFFFFF;stroke-width:2;stroke-linecap:round;stroke-miterlimit:10;}
</style>
<g>
	<g>
		<path class="st0" d="M37.6,11.3c0.1,0.1,0.1,0.1,0.1,0.2v4.6c0,0.1-0.1,0.2-0.1,0.2L20.1,33.9c-0.1,0.1-0.1,0.1-0.2,0L2.4,16.4
			c-0.1-0.1-0.1-0.1-0.1-0.2v-4.6c0-0.1,0.1-0.2,0.1-0.2l5.2-5.2c0.1-0.1,0.1-0.1,0.2-0.1h4.6c0.1,0,0.2,0.1,0.2,0.1l5.8,5.8
			c0.1,0.1,0.1,0.1,0.2,0.2l1.2,1.2c0.1,0.1,0.1,0.1,0.2,0l1.2-1.2c0.1-0.1,0.1-0.1,0.2-0.2l5.8-5.8c0.1-0.1,0.1-0.1,0.2-0.1H32
			L37.6,11.3z"/>
	</g>
	<line class="st1" x1="5" y1="13.3" x2="9.3" y2="9"/>
</g>
</svg>
