<svg id="Layer_1" data-name="Layer 1" xmlns="http://www.w3.org/2000/svg" viewBox="0 0 200 164"><defs><style>.cls-1{fill:none;stroke:#00c58a;stroke-miterlimit:10;stroke-width:6px;}</style></defs><ellipse class="cls-1" cx="100.5" cy="14.78" rx="11" ry="11.53"/><path class="cls-1" d="M118.5,53c0-10.42-8.06-18.87-18-18.87s-18,8.45-18,18.87Z"/><ellipse class="cls-1" cx="21" cy="122.64" rx="11" ry="11.53"/><path class="cls-1" d="M39,160.89C39,150.47,30.94,142,21,142S3,150.47,3,160.89Z"/><ellipse class="cls-1" cx="179" cy="122.64" rx="11" ry="11.53"/><path class="cls-1" d="M197,160.89c0-10.42-8.06-18.86-18-18.86s-18,8.44-18,18.86Z"/><path class="cls-1" d="M58.08,113.85c1.92-3.31,7.11-.31,9-3.62s-3.28-6.31-1.37-9.63,7.11-.31,9-3.62-3.29-6.31-1.37-9.62,7.1-.31,9-3.62S79.11,77.42,81,74.11s7.11-.32,9-3.63"/><path class="cls-1" d="M137.79,116.86c-1.91-3.31,3.28-6.31,1.37-9.62s-7.1-.31-9-3.62,3.29-6.31,1.38-9.62-7.11-.31-9-3.62,3.28-6.32,1.37-9.63-7.11-.31-9-3.63,3.28-6.31,1.37-9.63"/><path class="cls-1" d="M73.73,146.61c3.82,0,3.82,6,7.64,6s3.83-6,7.65-6,3.82,6,7.65,6,3.82-6,7.65-6,3.82,6,7.64,6,3.83-6,7.66-6,3.82,6,7.65,6"/></svg>