<?xml version="1.0" encoding="utf-8"?>
<!-- Generator: Adobe Illustrator 25.2.0, SVG Export Plug-In . SVG Version: 6.00 Build 0)  -->
<svg version="1.1" id="Layer_1" xmlns="http://www.w3.org/2000/svg" xmlns:xlink="http://www.w3.org/1999/xlink" x="0px" y="0px"
	 viewBox="0 0 40 40" style="enable-background:new 0 0 40 40;" xml:space="preserve">
<style type="text/css">
	.st0{display:none;}
	.st1{display:inline;}
	.st2{fill:#FFFFFF;stroke:#FFFFFF;stroke-width:2;stroke-miterlimit:10;}
	.st3{fill:none;stroke:#FFFFFF;stroke-width:2;stroke-miterlimit:10;}
</style>
<g id="Layer_1_1_" class="st0">
	<g class="st1">
		<path d="M32.5,22.6h-10c-0.5,0-1,0.5-1,1v10c0,0.5,0.5,1,1,1h10c0.5,0,1-0.5,1-1v-10C33.5,23.1,33,22.6,32.5,22.6z"/>
		<path d="M32.5,6.6h-10c-0.5,0-1,0.5-1,1v10c0,0.6,0.5,1,1,1h10c0.5,0,1-0.4,1-1v-10C33.5,7.1,33,6.6,32.5,6.6z"/>
		<path d="M16.5,6.6h-10c-0.5,0-1,0.5-1,1v10c0,0.6,0.5,1,1,1h10c0.6,0,1-0.4,1-1v-10C17.5,7.1,17.1,6.6,16.5,6.6z"/>
		<path d="M16.5,22.6h-10c-0.5,0-1,0.5-1,1v10c0,0.5,0.5,1,1,1h10c0.6,0,1-0.5,1-1v-10C17.5,23.1,17.1,22.6,16.5,22.6z"/>
	</g>
</g>
<path class="st2" d="M16.2,17.6H3.4c-0.8,0-1.4-0.5-1.4-1.4V3.4c0-0.8,0.5-1.4,1.4-1.4h12.8c0.8,0,1.4,0.5,1.4,1.4v12.8
	C17.6,16.9,17.1,17.6,16.2,17.6z"/>
<path class="st3" d="M16.2,38H3.4C2.6,38,2,37.5,2,36.7V23.9c0-0.8,0.5-1.4,1.4-1.4h12.8c0.8,0,1.4,0.5,1.4,1.4v12.8
	C17.6,37.5,17.1,38,16.2,38z"/>
<path class="st3" d="M36.7,38H23.9c-0.8,0-1.4-0.5-1.4-1.4V23.9c0-0.8,0.5-1.4,1.4-1.4h12.8c0.8,0,1.4,0.5,1.4,1.4v12.8
	C38,37.5,37.5,38,36.7,38z"/>
<path class="st3" d="M36.7,17.6H23.9c-0.8,0-1.4-0.5-1.4-1.4V3.4c0-0.8,0.5-1.4,1.4-1.4h12.8c0.8,0,1.4,0.5,1.4,1.4v12.8
	C38,16.9,37.5,17.6,36.7,17.6z"/>
</svg>
